# xmcd CD database file
#
# Track frame offsets:
#	150
#	19220
#	33872
#	49190
#	69265
#	88817
#	112740
#	129110
#	146260
#	162790
#	182612
#	198080
#	212600
#	226680
#
# Disc length: 3224 seconds
#
# Revision: 1
# Processed by: cddbd v1.5.2PL0 Copyright (c) Steve Scherf et al.
# Submitted via: CDex 1.70beta2
#
DISCID=a40c960e
DTITLE=Various Artist - 100% Superventas 2
DYEAR=1999
DGENRE=Data
TTITLE0=Salomé-Banda Caliente
TTITLE1=Pobre Miguel (Version Cumbia)-Banda Caliente
TTITLE2=Depende (Version Tropical)-Caña de Azúcar
TTITLE3=Suavemente-Grupo Merenguisimo (Elvis Crespo/Arr. Roberto Cora)
TTITLE4=Oye-Aurora Navarro (G. Estefan/E. Estefan/R. Barlow/Angie Cimino)
TTITLE5=Amor Narcótico-B-CHIC (Chichi Peralta/Jandy Feliz)
TTITLE6=Mujer Latina-Aurora Navarro
TTITLE7=Probe miguel (El Ermitaño)-Furia Gitana (Rafael Escalona)
TTITLE8=Tani-Los Fernandos (F. Muñoz Acosta/G.Monreal)
TTITLE9=Ole-Furia Gitana (M. Gallardo/David Ferrero/Pedro del Moral)
TTITLE10=BOOM BOOM BOOM BOOM  - Ultra Dance (Danzky/D.J.Del Mundo)
TTITLE11=DOO DAH-D.J. In the Night (Arr. Toonie/Sponge/Shooter)
TTITLE12=Witch Doctor-Cool Sensation (David Seville)
TTITLE13=Big Big World-Amanda (Emilia/Yogui)
EXTD=YEAR: 1999
EXTT0=
EXTT1=
EXTT2=
EXTT3=
EXTT4=
EXTT5=
EXTT6=
EXTT7=
EXTT8=
EXTT9=
EXTT10=
EXTT11=
EXTT12=
EXTT13=
PLAYORDER=
